<svg width="200" height="200" viewBox="0 0 200 200" fill="none" xmlns="http://www.w3.org/2000/svg">
  <circle cx="100" cy="100" r="100" fill="white"/>
  <!-- Cat silhouette singing -->
  <path d="M60 80 C60 60, 80 40, 100 40 C120 40, 140 60, 140 80 L140 120 C140 140, 120 160, 100 160 C80 160, 60 140, 60 120 Z" fill="black"/>
  <!-- Cat ears -->
  <path d="M80 40 L85 25 L95 35 Z" fill="black"/>
  <path d="M105 35 L115 25 L120 40 Z" fill="black"/>
  <!-- Cat tail -->
  <path d="M140 100 C150 95, 160 100, 165 110 C170 120, 165 130, 155 125 C150 120, 145 110, 140 105" fill="black"/>
  <!-- Microphone -->
  <circle cx="130" cy="90" r="8" fill="black"/>
  <rect x="125" y="98" width="10" height="20" fill="black"/>
  <!-- Musical notes -->
  <circle cx="160" cy="60" r="4" fill="black"/>
  <rect x="164" y="50" width="2" height="14" fill="black"/>
  <circle cx="170" cy="45" r="3" fill="black"/>
  <rect x="173" y="38" width="2" height="10" fill="black"/>
</svg>
